<svg xmlns="http://www.w3.org/2000/svg" xmlns:xlink="http://www.w3.org/1999/xlink"><symbol id="arrow" viewBox="0 0 8 5">
<path fill-rule="evenodd" clip-rule="evenodd" d="M1 0L4 3L7 0L8 1L4 5L0 1L1 0Z" fill="black"/>
</symbol><symbol id="my-sprite">
    <symbol id="arrow" width="8" height="5" viewBox="0 0 8 5" fill="none">
        <path fill-rule="evenodd" clip-rule="evenodd" d="M1 0L4 3L7 0L8 1L4 5L0 1L1 0Z" fill="black"/>
    </symbol>
</symbol><symbol id="valuation" viewBox="0 0 19 12">
<path d="M0.72 11.345V10.325H8.28V11.345H0.72ZM0.72 9.755V8.63L6.81 6.44L0.72 4.205V3.095L8.28 5.915V6.95L0.72 9.755ZM18.5089 11V0.364999H17.5339C17.4639 0.764999 17.3339 1.095 17.1439 1.355C16.9539 1.615 16.7189 1.82 16.4389 1.97C16.1689 2.12 15.8639 2.225 15.5239 2.285C15.1839 2.335 14.8339 2.36 14.4739 2.36V3.38H17.2339V11H18.5089Z" fill="#CFCFCF"/>
</symbol></svg>